<svg width="512" height="512" viewBox="0 0 320 320" fill="none" xmlns="http://www.w3.org/2000/svg">
    <g clip-path="url(#clip0_8_3)">
        <path d="M92.2419 301.58C92.576 302.666 92.4089 303.835 91.8241 304.796L83.7625 317.87C82.9689 319.165 81.507 320 79.9197 320H4.48301C0.974354 320 -1.1559 316.324 0.72376 313.568L49.3023 242.016C49.5946 241.598 49.7618 241.138 49.8871 240.679L72.1504 145.61C72.4011 144.483 73.153 143.522 74.239 142.937L104.397 126.396C105.483 125.811 106.235 124.851 106.485 123.681L110.537 106.012C111.372 102.337 116.636 101.543 118.724 104.759L120.186 107.098C120.813 108.101 120.98 109.354 120.562 110.482L93.0772 189.928C92.8684 190.555 92.7849 191.223 92.9102 191.892L99.7604 229.902C99.8857 230.654 99.8021 231.448 99.468 232.158L83.136 268.832C82.7601 269.709 82.6765 270.67 82.9689 271.547L92.2419 301.58ZM315.544 320H263.582C262.079 320 260.7 319.248 259.865 318.079L224.903 268.915C224.695 268.581 224.486 268.247 224.36 267.871L207.026 217.246C206.692 216.243 205.898 215.366 204.896 214.865L162.457 193.437C161.288 192.852 160.452 191.766 160.202 190.555L153.936 159.478C153.853 158.977 153.644 158.476 153.31 158.016L138.899 136.839C138.105 135.669 137.98 134.249 138.565 132.996L147.336 114.241C148.005 112.821 149.467 111.86 151.138 111.777L167.428 110.816C168.389 110.774 169.266 110.44 169.976 109.855L181.964 100.541C184.219 98.7862 187.645 99.5381 188.856 102.003L230.166 186.044C230.333 186.42 230.459 186.796 230.542 187.172L235.638 220.964C235.764 221.757 236.098 222.467 236.641 223.052L318.928 313.108C321.35 315.781 319.304 320 315.544 320ZM113.503 57.058C113.503 47.4927 119.559 39.264 128.248 35.4211C127.621 34.3769 127.245 33.2491 127.245 32.0378C127.245 27.4013 132.592 23.642 139.15 23.642C139.317 23.642 139.442 23.642 139.609 23.642C142.324 19.1308 147.504 16.0816 153.435 16.0816C153.853 16.0816 154.27 16.0816 154.688 16.1234C155.231 16.1652 155.774 15.9146 156.066 15.4969C160.452 8.81365 171.563 4.05187 184.554 4.05187C189.357 4.05187 193.91 4.72019 197.962 5.84798C198.922 4.26072 201.053 3.1747 203.517 3.1747C206.316 3.1747 208.697 4.59488 209.407 6.55807C212.832 2.58992 218.638 0.000183105 225.238 0.000183105C235.764 0.000183105 244.285 6.64161 244.285 14.8285C244.285 15.831 244.159 16.7917 243.909 17.7524C243.742 18.4208 244.118 19.0891 244.828 19.3397C251.553 21.8041 256.106 26.4824 256.106 31.8289C256.106 37.9273 250.216 43.1486 241.904 45.1953C241.235 45.3624 240.818 45.9472 240.818 46.5737C240.818 46.6155 240.818 46.6573 240.818 46.699C240.818 51.4191 236.14 55.3037 230.125 55.7214C230.166 55.9302 230.166 56.1391 230.166 56.3897C230.166 65.4538 212.915 72.7635 191.654 72.7635C187.06 72.7635 182.674 72.4294 178.622 71.8028C178.622 71.8864 178.622 71.9281 178.622 72.0117C178.622 75.771 173.777 78.8202 167.845 78.8202C167.511 78.8202 167.219 78.8202 166.927 78.7784C167.344 79.6973 167.553 80.658 167.553 81.6605C167.553 87.5083 160.16 92.2283 151.012 92.2283C150.01 92.2283 149.049 92.1866 148.088 92.0613C147.336 91.9777 146.626 92.4372 146.459 93.1473C145.666 96.0712 143.118 98.2014 140.068 98.2014C136.393 98.2014 133.469 95.0687 133.469 91.2259C133.469 89.4298 134.095 87.8007 135.14 86.5894C135.516 86.1717 135.641 85.5869 135.39 85.0857C134.805 83.9997 134.555 82.8719 134.555 81.6605C134.555 80.9922 134.012 80.4492 133.343 80.2821C122.024 77.7759 113.503 68.3359 113.503 57.058ZM209.407 283.953C209.574 284.454 209.616 284.955 209.616 285.498L207.193 316.116C207.026 318.288 205.104 320 202.765 320H124.572C122.901 320 121.356 319.039 120.604 317.661L107.697 293.685C107.613 293.56 107.571 293.434 107.53 293.309L95.3746 263.861C94.9152 262.817 94.9987 261.606 95.4999 260.603L115.675 221.131C116.176 220.17 116.26 219.042 115.884 218.04L106.026 190.722C105.692 189.761 105.734 188.675 106.151 187.756L122.609 152.711C124.279 149.203 129.751 149.495 130.921 153.171L136.059 169.127L151.722 211.064C152.14 212.234 153.143 213.153 154.396 213.57L187.812 224.973C189.106 225.433 190.109 226.394 190.527 227.605L209.407 283.953Z" fill="black"/>
        <mask id="path-2-outside-1_8_3" maskUnits="userSpaceOnUse" x="149" y="245.752" width="159" height="69" fill="black">
            <rect fill="white" x="149" y="245.752" width="159" height="69"/>
            <path d="M172.614 274.479L168.097 301.752H163.04L170.313 258.116H175.227L174.091 264.962H174.546C175.909 262.727 177.794 260.938 180.199 259.593C182.623 258.229 185.436 257.547 188.636 257.547C191.553 257.547 194.015 258.163 196.023 259.394C198.049 260.606 199.489 262.396 200.341 264.763C201.212 267.131 201.364 270.038 200.796 273.485L196.051 301.752H190.994L195.653 273.797C196.241 270.237 195.72 267.415 194.091 265.332C192.481 263.229 189.991 262.178 186.619 262.178C184.328 262.178 182.197 262.671 180.227 263.655C178.277 264.64 176.629 266.061 175.284 267.917C173.939 269.754 173.049 271.941 172.614 274.479ZM226.896 302.661C222.824 302.661 219.463 301.714 216.811 299.82C214.16 297.907 212.304 295.265 211.243 291.894C210.182 288.504 210.021 284.602 210.76 280.189C211.499 275.796 212.957 271.894 215.135 268.485C217.313 265.057 220.002 262.377 223.203 260.445C226.404 258.494 229.879 257.519 233.629 257.519C235.997 257.519 238.213 257.955 240.277 258.826C242.341 259.678 244.093 260.994 245.533 262.775C246.991 264.536 248.004 266.761 248.572 269.451C249.141 272.121 249.122 275.284 248.516 278.939L248.118 281.439H214.027L214.737 276.979H243.686C244.16 274.176 244.027 271.657 243.288 269.422C242.55 267.188 241.29 265.417 239.51 264.11C237.749 262.784 235.561 262.121 232.947 262.121C230.277 262.121 227.749 262.869 225.362 264.366C222.995 265.862 220.987 267.813 219.34 270.218C217.711 272.604 216.66 275.152 216.186 277.86L215.618 281.212C215.012 284.905 215.088 288.002 215.845 290.502C216.603 292.983 217.976 294.858 219.965 296.127C221.953 297.396 224.501 298.03 227.607 298.03C229.69 298.03 231.574 297.708 233.26 297.064C234.946 296.421 236.413 295.559 237.663 294.479C238.913 293.381 239.917 292.178 240.675 290.871L245.192 292.434C244.226 294.271 242.862 295.966 241.101 297.519C239.358 299.072 237.285 300.322 234.879 301.269C232.493 302.197 229.832 302.661 226.896 302.661ZM273.011 302.661C269.186 302.661 265.966 301.695 263.352 299.763C260.739 297.813 258.892 295.114 257.813 291.667C256.733 288.22 256.553 284.242 257.273 279.735C257.992 275.341 259.422 271.477 261.563 268.144C263.722 264.792 266.373 262.188 269.517 260.332C272.661 258.457 276.08 257.519 279.773 257.519C283.617 257.519 286.837 258.494 289.432 260.445C292.046 262.396 293.892 265.095 294.972 268.542C296.07 271.989 296.26 275.975 295.54 280.502C294.82 284.877 293.381 288.731 291.222 292.064C289.063 295.379 286.411 297.974 283.267 299.849C280.142 301.724 276.724 302.661 273.011 302.661ZM273.068 298.03C276.174 298.03 278.939 297.206 281.364 295.559C283.807 293.892 285.824 291.676 287.415 288.911C289.006 286.127 290.076 283.068 290.625 279.735C291.136 276.553 291.08 273.627 290.455 270.957C289.83 268.286 288.627 266.146 286.847 264.536C285.066 262.926 282.699 262.121 279.744 262.121C276.657 262.121 273.892 262.964 271.449 264.65C269.006 266.316 266.989 268.551 265.398 271.354C263.807 274.138 262.746 277.188 262.216 280.502C261.686 283.703 261.724 286.629 262.33 289.28C262.955 291.932 264.157 294.053 265.938 295.644C267.737 297.235 270.114 298.03 273.068 298.03Z"/>
        </mask>
        <path d="M172.614 274.479L168.097 301.752H163.04L170.313 258.116H175.227L174.091 264.962H174.546C175.909 262.727 177.794 260.938 180.199 259.593C182.623 258.229 185.436 257.547 188.636 257.547C191.553 257.547 194.015 258.163 196.023 259.394C198.049 260.606 199.489 262.396 200.341 264.763C201.212 267.131 201.364 270.038 200.796 273.485L196.051 301.752H190.994L195.653 273.797C196.241 270.237 195.72 267.415 194.091 265.332C192.481 263.229 189.991 262.178 186.619 262.178C184.328 262.178 182.197 262.671 180.227 263.655C178.277 264.64 176.629 266.061 175.284 267.917C173.939 269.754 173.049 271.941 172.614 274.479ZM226.896 302.661C222.824 302.661 219.463 301.714 216.811 299.82C214.16 297.907 212.304 295.265 211.243 291.894C210.182 288.504 210.021 284.602 210.76 280.189C211.499 275.796 212.957 271.894 215.135 268.485C217.313 265.057 220.002 262.377 223.203 260.445C226.404 258.494 229.879 257.519 233.629 257.519C235.997 257.519 238.213 257.955 240.277 258.826C242.341 259.678 244.093 260.994 245.533 262.775C246.991 264.536 248.004 266.761 248.572 269.451C249.141 272.121 249.122 275.284 248.516 278.939L248.118 281.439H214.027L214.737 276.979H243.686C244.16 274.176 244.027 271.657 243.288 269.422C242.55 267.188 241.29 265.417 239.51 264.11C237.749 262.784 235.561 262.121 232.947 262.121C230.277 262.121 227.749 262.869 225.362 264.366C222.995 265.862 220.987 267.813 219.34 270.218C217.711 272.604 216.66 275.152 216.186 277.86L215.618 281.212C215.012 284.905 215.088 288.002 215.845 290.502C216.603 292.983 217.976 294.858 219.965 296.127C221.953 297.396 224.501 298.03 227.607 298.03C229.69 298.03 231.574 297.708 233.26 297.064C234.946 296.421 236.413 295.559 237.663 294.479C238.913 293.381 239.917 292.178 240.675 290.871L245.192 292.434C244.226 294.271 242.862 295.966 241.101 297.519C239.358 299.072 237.285 300.322 234.879 301.269C232.493 302.197 229.832 302.661 226.896 302.661ZM273.011 302.661C269.186 302.661 265.966 301.695 263.352 299.763C260.739 297.813 258.892 295.114 257.813 291.667C256.733 288.22 256.553 284.242 257.273 279.735C257.992 275.341 259.422 271.477 261.563 268.144C263.722 264.792 266.373 262.188 269.517 260.332C272.661 258.457 276.08 257.519 279.773 257.519C283.617 257.519 286.837 258.494 289.432 260.445C292.046 262.396 293.892 265.095 294.972 268.542C296.07 271.989 296.26 275.975 295.54 280.502C294.82 284.877 293.381 288.731 291.222 292.064C289.063 295.379 286.411 297.974 283.267 299.849C280.142 301.724 276.724 302.661 273.011 302.661ZM273.068 298.03C276.174 298.03 278.939 297.206 281.364 295.559C283.807 293.892 285.824 291.676 287.415 288.911C289.006 286.127 290.076 283.068 290.625 279.735C291.136 276.553 291.08 273.627 290.455 270.957C289.83 268.286 288.627 266.146 286.847 264.536C285.066 262.926 282.699 262.121 279.744 262.121C276.657 262.121 273.892 262.964 271.449 264.65C269.006 266.316 266.989 268.551 265.398 271.354C263.807 274.138 262.746 277.188 262.216 280.502C261.686 283.703 261.724 286.629 262.33 289.28C262.955 291.932 264.157 294.053 265.938 295.644C267.737 297.235 270.114 298.03 273.068 298.03Z" fill="white"/>
        <path d="M172.614 274.479L161.526 272.576L161.52 272.609L161.515 272.641L172.614 274.479ZM168.097 301.752V313.002H177.637L179.195 303.59L168.097 301.752ZM163.04 301.752L151.943 299.902L149.76 313.002H163.04V301.752ZM170.313 258.116V246.866H160.782L159.216 256.266L170.313 258.116ZM175.227 258.116L186.326 259.958L188.498 246.866H175.227V258.116ZM174.091 264.962L162.993 263.12L160.82 276.212H174.091V264.962ZM174.546 264.962V276.212H180.86L184.149 270.822L174.546 264.962ZM180.199 259.593L185.689 269.413L185.702 269.405L185.714 269.398L180.199 259.593ZM196.023 259.394L190.142 268.984L190.195 269.017L190.248 269.049L196.023 259.394ZM200.341 264.763L189.756 268.574L189.769 268.611L189.783 268.649L200.341 264.763ZM200.796 273.485L211.89 275.347L211.893 275.331L211.896 275.315L200.796 273.485ZM196.051 301.752V313.002H205.57L207.146 303.614L196.051 301.752ZM190.994 301.752L179.897 299.902L177.714 313.002H190.994V301.752ZM195.653 273.797L206.75 275.647L206.752 275.637L206.754 275.628L195.653 273.797ZM194.091 265.332L185.159 272.171L185.193 272.216L185.228 272.261L194.091 265.332ZM180.227 263.655L175.196 253.593L175.177 253.603L175.157 253.613L180.227 263.655ZM175.284 267.917L184.362 274.561L184.378 274.539L184.394 274.517L175.284 267.917ZM161.515 272.641L156.998 299.914L179.195 303.59L183.712 276.317L161.515 272.641ZM168.097 290.502H163.04V313.002H168.097V290.502ZM174.137 303.601L181.409 259.965L159.216 256.266L151.943 299.902L174.137 303.601ZM170.313 269.366H175.227V246.866H170.313V269.366ZM164.129 256.274L162.993 263.12L185.189 266.804L186.326 259.958L164.129 256.274ZM174.091 276.212H174.546V253.712H174.091V276.212ZM184.149 270.822C184.451 270.327 184.88 269.864 185.689 269.413L174.709 249.773C170.707 252.011 167.367 255.128 164.942 259.102L184.149 270.822ZM185.714 269.398C186.215 269.116 187.073 268.797 188.636 268.797V246.297C183.798 246.297 179.031 247.342 174.683 249.788L185.714 269.398ZM188.636 268.797C189.971 268.797 190.282 269.07 190.142 268.984L201.904 249.804C197.748 247.255 193.136 246.297 188.636 246.297V268.797ZM190.248 269.049C190.209 269.025 190.144 268.982 190.067 268.915C189.99 268.848 189.918 268.773 189.856 268.696C189.723 268.531 189.712 268.452 189.756 268.574L210.926 260.953C209.256 256.313 206.207 252.377 201.798 249.739L190.248 269.049ZM189.783 268.649C189.773 268.621 190.063 269.424 189.695 271.655L211.896 275.315C212.664 270.652 212.652 265.641 210.899 260.878L189.783 268.649ZM189.701 271.623L184.956 299.89L207.146 303.614L211.89 275.347L189.701 271.623ZM196.051 290.502H190.994V313.002H196.051V290.502ZM202.091 303.601L206.75 275.647L184.557 271.948L179.897 299.902L202.091 303.601ZM206.754 275.628C207.659 270.138 207.149 263.768 202.954 258.402L185.228 272.261C185.049 272.031 184.905 271.785 184.801 271.548C184.698 271.314 184.656 271.137 184.64 271.052C184.612 270.903 184.688 271.153 184.553 271.967L206.754 275.628ZM203.023 258.492C198.718 252.87 192.442 250.928 186.619 250.928V273.428C187.162 273.428 187.077 273.515 186.641 273.331C186.418 273.237 186.144 273.088 185.86 272.87C185.575 272.651 185.34 272.407 185.159 272.171L203.023 258.492ZM186.619 250.928C182.654 250.928 178.792 251.795 175.196 253.593L185.258 273.718C185.602 273.546 186.001 273.428 186.619 273.428V250.928ZM175.157 253.613C171.526 255.446 168.518 258.08 166.174 261.316L184.394 274.517C184.739 274.041 185.027 273.834 185.297 273.698L175.157 253.613ZM166.206 261.272C163.706 264.687 162.217 268.55 161.526 272.576L183.702 276.382C183.882 275.333 184.173 274.82 184.362 274.561L166.206 261.272ZM216.811 299.82L210.229 308.944L210.251 308.959L210.272 308.975L216.811 299.82ZM211.243 291.894L200.506 295.253L200.509 295.262L200.512 295.27L211.243 291.894ZM210.76 280.189L199.666 278.324L199.664 278.332L210.76 280.189ZM215.135 268.485L224.615 274.542L224.623 274.53L224.631 274.518L215.135 268.485ZM223.203 260.445L229.016 270.077L229.037 270.064L229.058 270.052L223.203 260.445ZM240.277 258.826L235.903 269.191L235.943 269.208L235.984 269.224L240.277 258.826ZM245.533 262.775L236.784 269.848L236.826 269.899L236.867 269.949L245.533 262.775ZM248.572 269.451L237.565 271.776L237.567 271.784L237.569 271.792L248.572 269.451ZM248.516 278.939L237.417 277.099L237.411 277.136L237.405 277.172L248.516 278.939ZM248.118 281.439V292.689H257.72L259.228 283.207L248.118 281.439ZM214.027 281.439L202.917 279.67L200.844 292.689H214.027V281.439ZM214.737 276.979V265.729H205.137L203.627 275.21L214.737 276.979ZM243.686 276.979V288.229H253.195L254.779 278.853L243.686 276.979ZM243.288 269.422L232.607 272.953L232.607 272.953L243.288 269.422ZM239.51 264.11L232.745 273.098L232.799 273.139L232.853 273.179L239.51 264.11ZM225.362 264.366L219.386 254.834L219.369 254.845L219.352 254.856L225.362 264.366ZM219.34 270.218L210.058 263.86L210.053 263.868L210.048 263.876L219.34 270.218ZM216.186 277.86L205.104 275.923L205.099 275.951L205.094 275.98L216.186 277.86ZM215.618 281.212L204.526 279.332L204.521 279.361L204.516 279.39L215.618 281.212ZM215.845 290.502L205.079 293.765L205.082 293.776L205.086 293.787L215.845 290.502ZM219.965 296.127L213.913 305.611L213.913 305.611L219.965 296.127ZM233.26 297.064L237.275 307.574L237.275 307.574L233.26 297.064ZM237.663 294.479L245.017 302.993L245.053 302.962L245.09 302.93L237.663 294.479ZM240.675 290.871L244.352 280.239L235.591 277.209L230.942 285.229L240.675 290.871ZM245.192 292.434L255.149 297.669L261.242 286.082L248.87 281.802L245.192 292.434ZM241.101 297.519L233.661 289.081L233.638 289.101L233.615 289.121L241.101 297.519ZM234.879 301.269L238.957 311.754L238.979 311.746L239.001 311.737L234.879 301.269ZM226.896 291.411C224.578 291.411 223.663 290.889 223.35 290.666L210.272 308.975C215.262 312.539 221.071 313.911 226.896 313.911V291.411ZM223.393 290.697C222.87 290.319 222.37 289.775 221.974 288.518L200.512 295.27C202.237 300.756 205.449 305.495 210.229 308.944L223.393 290.697ZM221.98 288.535C221.566 287.212 221.335 285.158 221.856 282.047L199.664 278.332C198.708 284.047 198.799 289.796 200.506 295.253L221.98 288.535ZM221.854 282.054C222.368 279 223.331 276.553 224.615 274.542L205.655 262.428C202.583 267.235 200.63 272.591 199.666 278.324L221.854 282.054ZM224.631 274.518C225.958 272.429 227.43 271.034 229.016 270.077L217.39 250.813C212.574 253.72 208.668 257.685 205.639 262.452L224.631 274.518ZM229.058 270.052C230.494 269.176 231.944 268.769 233.629 268.769V246.269C227.815 246.269 222.314 247.813 217.348 250.839L229.058 270.052ZM233.629 268.769C234.581 268.769 235.3 268.936 235.903 269.191L244.651 248.461C241.125 246.973 237.413 246.269 233.629 246.269V268.769ZM235.984 269.224C236.264 269.34 236.498 269.493 236.784 269.848L254.281 255.702C251.689 252.496 248.419 250.016 244.57 248.427L235.984 269.224ZM236.867 269.949C236.952 270.051 237.298 270.512 237.565 271.776L259.58 267.125C258.71 263.011 257.031 259.021 254.198 255.6L236.867 269.949ZM237.569 271.792C237.76 272.691 237.87 274.367 237.417 277.099L259.614 280.78C260.373 276.201 260.521 271.551 259.576 267.11L237.569 271.792ZM237.405 277.172L237.008 279.672L259.228 283.207L259.626 280.707L237.405 277.172ZM248.118 270.189H214.027V292.689H248.118V270.189ZM225.137 283.209L225.847 278.748L203.627 275.21L202.917 279.67L225.137 283.209ZM214.737 288.229H243.686V265.729H214.737V288.229ZM254.779 278.853C255.495 274.615 255.392 270.194 253.97 265.892L232.607 272.953C232.662 273.12 232.824 273.738 232.593 275.105L254.779 278.853ZM253.97 265.892C252.549 261.592 249.959 257.824 246.167 255.041L232.853 273.179C232.829 273.161 232.79 273.129 232.744 273.083C232.697 273.036 232.656 272.986 232.622 272.939C232.589 272.892 232.573 272.861 232.57 272.855C232.567 272.85 232.582 272.879 232.607 272.953L253.97 265.892ZM246.275 255.122C242.221 252.07 237.534 250.871 232.947 250.871V273.371C233.304 273.371 233.389 273.416 233.286 273.385C233.235 273.37 233.152 273.34 233.049 273.288C232.945 273.236 232.841 273.171 232.745 273.098L246.275 255.122ZM232.947 250.871C228.045 250.871 223.461 252.279 219.386 254.834L231.338 273.897C232.036 273.459 232.509 273.371 232.947 273.371V250.871ZM219.352 254.856C215.638 257.203 212.535 260.245 210.058 263.86L228.621 276.576C229.44 275.38 230.352 274.521 231.373 273.876L219.352 254.856ZM210.048 263.876C207.562 267.517 205.868 271.555 205.104 275.923L227.268 279.797C227.451 278.748 227.859 277.691 228.631 276.56L210.048 263.876ZM205.094 275.98L204.526 279.332L226.71 283.092L227.278 279.74L205.094 275.98ZM204.516 279.39C203.744 284.098 203.654 289.063 205.079 293.765L226.612 287.239C226.521 286.941 226.28 285.713 226.719 283.034L204.516 279.39ZM205.086 293.787C206.541 298.555 209.437 302.755 213.913 305.611L226.016 286.643C226.086 286.688 226.176 286.755 226.273 286.845C226.37 286.935 226.453 287.031 226.52 287.122C226.66 287.314 226.658 287.389 226.605 287.217L205.086 293.787ZM213.913 305.611C218.199 308.345 223.022 309.28 227.607 309.28V286.78C225.979 286.78 225.708 286.447 226.016 286.643L213.913 305.611ZM227.607 309.28C230.853 309.28 234.125 308.777 237.275 307.574L229.245 286.555C229.023 286.64 228.527 286.78 227.607 286.78V309.28ZM237.275 307.574C240.068 306.507 242.691 305.002 245.017 302.993L230.31 285.965C230.136 286.115 229.823 286.334 229.245 286.555L237.275 307.574ZM245.09 302.93C247.163 301.108 248.98 298.977 250.408 296.513L230.942 285.229C230.855 285.379 230.664 285.654 230.237 286.029L245.09 302.93ZM236.997 301.503L241.514 303.066L248.87 281.802L244.352 280.239L236.997 301.503ZM235.234 287.198C234.984 287.675 234.529 288.315 233.661 289.081L248.541 305.957C251.196 303.617 253.468 300.867 255.149 297.669L235.234 287.198ZM233.615 289.121C232.964 289.701 232.061 290.288 230.758 290.801L239.001 311.737C242.508 310.356 245.753 308.443 248.586 305.917L233.615 289.121ZM230.802 290.784C229.891 291.138 228.639 291.411 226.896 291.411V313.911C231.025 313.911 235.095 313.256 238.957 311.754L230.802 290.784ZM263.352 299.763L256.623 308.779L256.644 308.795L256.665 308.81L263.352 299.763ZM257.813 291.667L247.077 295.029L257.813 291.667ZM257.273 279.735L246.171 277.916L246.167 277.939L246.163 277.961L257.273 279.735ZM261.563 268.144L252.105 262.052L252.1 262.059L252.096 262.066L261.563 268.144ZM269.517 260.332L275.236 270.019L275.258 270.007L275.279 269.994L269.517 260.332ZM289.432 260.445L282.671 269.437L282.687 269.449L282.703 269.461L289.432 260.445ZM294.972 268.542L284.236 271.904L284.244 271.931L284.253 271.958L294.972 268.542ZM295.54 280.502L306.641 282.328L306.646 282.298L306.65 282.268L295.54 280.502ZM291.222 292.064L300.648 298.205L300.656 298.193L300.664 298.18L291.222 292.064ZM283.267 299.849L277.505 290.186L277.492 290.194L277.479 290.202L283.267 299.849ZM281.364 295.559L287.688 304.863L287.696 304.858L287.703 304.852L281.364 295.559ZM287.415 288.911L297.166 294.521L297.174 294.507L297.183 294.493L287.415 288.911ZM290.625 279.735L301.725 281.564L301.729 281.542L301.733 281.52L290.625 279.735ZM271.449 264.65L277.789 273.943L277.813 273.927L277.838 273.91L271.449 264.65ZM265.398 271.354L275.166 276.936L275.174 276.922L275.182 276.907L265.398 271.354ZM262.216 280.502L273.315 282.341L273.32 282.31L273.325 282.279L262.216 280.502ZM262.33 289.28L251.362 291.787L251.371 291.824L251.38 291.861L262.33 289.28ZM265.938 295.644L258.441 304.033L258.463 304.052L258.486 304.072L265.938 295.644ZM273.011 291.411C271.153 291.411 270.391 290.976 270.039 290.716L256.665 308.81C261.541 312.414 267.219 313.911 273.011 313.911V291.411ZM270.081 290.748C269.568 290.365 269 289.747 268.548 288.304L247.077 295.029C248.784 300.48 251.909 305.26 256.623 308.779L270.081 290.748ZM268.548 288.304C268.107 286.897 267.866 284.739 268.382 281.509L246.163 277.961C245.24 283.746 245.359 289.543 247.077 295.029L268.548 288.304ZM268.375 281.553C268.877 278.488 269.817 276.111 271.029 274.222L252.096 262.066C249.028 266.844 247.108 272.194 246.171 277.916L268.375 281.553ZM271.021 274.236C272.32 272.219 273.737 270.904 275.236 270.019L263.798 250.644C259.009 253.471 255.124 257.365 252.105 262.052L271.021 274.236ZM275.279 269.994C276.665 269.168 278.089 268.769 279.773 268.769V246.269C274.07 246.269 268.657 247.745 263.755 250.669L275.279 269.994ZM279.773 268.769C281.643 268.769 282.367 269.208 282.671 269.437L296.192 251.453C291.307 247.78 285.592 246.269 279.773 246.269V268.769ZM282.703 269.461C283.216 269.844 283.784 270.461 284.236 271.904L305.707 265.179C304 259.728 300.875 254.948 296.161 251.429L282.703 269.461ZM284.253 271.958C284.695 273.345 284.945 275.493 284.429 278.735L306.65 282.268C307.574 276.458 307.445 270.632 305.691 265.126L284.253 271.958ZM284.439 278.676C283.941 281.7 283.003 284.059 281.779 285.948L300.664 298.18C303.758 293.403 305.699 288.054 306.641 282.328L284.439 278.676ZM281.795 285.924C280.496 287.918 279.058 289.26 277.505 290.186L289.029 309.511C293.764 306.687 297.629 302.839 300.648 298.205L281.795 285.924ZM277.479 290.202C276.136 291.007 274.724 291.411 273.011 291.411V313.911C278.723 313.911 284.148 312.44 289.055 309.495L277.479 290.202ZM273.068 309.28C278.288 309.28 283.284 307.856 287.688 304.863L275.04 286.254C274.595 286.557 274.061 286.78 273.068 286.78V309.28ZM287.703 304.852C291.655 302.157 294.798 298.638 297.166 294.521L277.664 283.301C276.85 284.715 275.959 285.627 275.024 286.265L287.703 304.852ZM297.183 294.493C299.472 290.486 300.97 286.146 301.725 281.564L279.525 277.906C279.181 279.991 278.539 281.768 277.647 283.329L297.183 294.493ZM301.733 281.52C302.436 277.141 302.42 272.716 301.409 268.393L279.501 273.52C279.739 274.538 279.837 275.965 279.518 277.95L301.733 281.52ZM301.409 268.393C300.339 263.822 298.105 259.549 294.392 256.192L279.301 272.88C279.268 272.851 279.257 272.826 279.276 272.86C279.302 272.905 279.402 273.097 279.501 273.52L301.409 268.393ZM294.392 256.192C290.093 252.304 284.814 250.871 279.744 250.871V273.371C280.208 273.371 280.287 273.435 280.114 273.376C280.027 273.346 279.896 273.292 279.741 273.202C279.585 273.111 279.435 273.001 279.301 272.88L294.392 256.192ZM279.744 250.871C274.472 250.871 269.46 252.354 265.06 255.39L277.838 273.91C278.324 273.574 278.842 273.371 279.744 273.371V250.871ZM265.109 255.356C261.123 258.075 257.975 261.641 255.614 265.801L275.182 276.907C276.002 275.461 276.888 274.558 277.789 273.943L265.109 255.356ZM255.63 265.773C253.335 269.788 251.842 274.135 251.107 278.725L273.325 282.279C273.651 280.24 274.278 278.488 275.166 276.936L255.63 265.773ZM251.117 278.663C250.393 283.035 250.374 287.463 251.362 291.787L273.297 286.774C273.073 285.795 272.978 284.371 273.315 282.341L251.117 278.663ZM251.38 291.861C252.456 296.429 254.707 300.695 258.441 304.033L273.434 287.255C273.448 287.268 273.465 287.286 273.48 287.304C273.495 287.323 273.496 287.328 273.487 287.311C273.47 287.281 273.375 287.106 273.28 286.699L251.38 291.861ZM258.486 304.072C262.786 307.875 268.027 309.28 273.068 309.28V286.78C272.593 286.78 272.493 286.716 272.64 286.765C272.715 286.79 272.833 286.838 272.977 286.92C273.122 287.003 273.263 287.104 273.39 287.216L258.486 304.072Z" fill="black" mask="url(#path-2-outside-1_8_3)"/>
    </g>
    <defs>
        <clipPath id="clip0_8_3">
            <rect width="512" height="512" fill="white"/>
        </clipPath>
    </defs>
</svg>
