<?xml version="1.0" encoding="UTF-8" standalone="no"?>
<svg
   xmlns:dc="http://purl.org/dc/elements/1.1/"
   xmlns:cc="http://creativecommons.org/ns#"
   xmlns:rdf="http://www.w3.org/1999/02/22-rdf-syntax-ns#"
   xmlns:svg="http://www.w3.org/2000/svg"
   xmlns="http://www.w3.org/2000/svg"
   version="1.1"
   id="Layer_1"
   x="0px"
   y="0px"
   viewBox="0 0 1024 1024"
   xml:space="preserve"
   width="1024"
   height="1024"><metadata
     id="metadata15"><rdf:RDF><cc:Work
         rdf:about=""><dc:format>image/svg+xml</dc:format><dc:type
           rdf:resource="http://purl.org/dc/dcmitype/StillImage" /><dc:title></dc:title></cc:Work></rdf:RDF></metadata><defs
     id="defs13" /><style
     type="text/css"
     id="style2">
	.st0{fill:#D32F2F;}
	.st1{fill:#AD2A2A;}
	.st2{fill:#FFFFFF;}
</style><g
     id="layer4"
     style="display:none;fill:#808080"><rect
       id="XMLID_57_"
       x="0"
       y="0"
       class="st0"
       width="3584"
       height="1024"
       style="display:inline;fill:#808080;stroke-width:1.02195609" /></g><g
     id="layer3"
     style="display:none;fill:#808080"><path
       style="font-style:normal;font-variant:normal;font-weight:300;font-stretch:normal;font-size:341.33334351px;line-height:1.25;font-family:Roboto;-inkscape-font-specification:'Roboto Light';letter-spacing:0px;word-spacing:0px;display:inline;fill:#808080;fill-opacity:1;stroke:none"
       d="M 3046.8164,390.66602 3134.3164,542 v 91.33398 L 3524.9824,1024 H 3584 V 732.18359 L 3242.4824,390.66602 h -23.666 l -53.0352,94.63086 -94.6308,-94.63086 z"
       id="path18992" /><path
       style="font-style:normal;font-variant:normal;font-weight:300;font-stretch:normal;font-size:341.33334351px;line-height:1.25;font-family:Roboto;-inkscape-font-specification:'Roboto Light';letter-spacing:0px;word-spacing:0px;display:inline;fill:#808080;fill-opacity:1;stroke:none"
       d="m 2746.9824,390.66602 62,242.66796 L 3199.6484,1024 H 3584 V 940.68359 L 3033.9824,390.66602 h -21 l -21.9043,90.92773 -90.9277,-90.92773 h -18.5 l -25.4043,88.26367 -88.2637,-88.26367 z"
       id="path18990" /><path
       style="font-style:normal;font-variant:normal;font-weight:300;font-stretch:normal;font-size:341.33334351px;line-height:1.25;font-family:Roboto;-inkscape-font-specification:'Roboto Light';letter-spacing:0px;word-spacing:0px;display:inline;fill:#808080;fill-opacity:1;stroke:none"
       d="m 2620.8164,387.33398 c -18.6667,0 -35.1667,4.60982 -49.5,13.83204 -14.3333,9.11111 -25.4451,22.22287 -33.334,39.33398 -7.7778,17 -11.666,36.5549 -11.666,58.66602 v 25 c 0,34.44444 8.7216,61.83463 26.166,82.16796 L 2970.1484,1024 h 323.168 l -623.166,-623.16602 c -14.2222,-9 -30.6673,-13.5 -49.334,-13.5 z"
       id="path18988" /><path
       style="font-style:normal;font-variant:normal;font-weight:300;font-stretch:normal;font-size:341.33334351px;line-height:1.25;font-family:Roboto;-inkscape-font-specification:'Roboto Light';letter-spacing:0px;word-spacing:0px;display:inline;fill:#808080;fill-opacity:1;stroke:none"
       d="M 2293.4824,390.66602 V 633.33398 L 2684.1484,1024 h 423.336 l -633.334,-633.33398 h -20.334 v 139.66601 l -139.666,-139.66601 z"
       id="path18984" /><path
       style="font-style:normal;font-variant:normal;font-weight:300;font-stretch:normal;font-size:341.33334351px;line-height:1.25;font-family:Roboto;-inkscape-font-specification:'Roboto Light';letter-spacing:0px;word-spacing:0px;display:inline;fill:#808080;fill-opacity:1;stroke:none"
       d="M 1864.8164,390.66602 V 633.33398 L 2255.4824,1024 h 413.334 l -633.334,-633.33398 h -25.832 l -60.584,63.75 -63.75,-63.75 z"
       id="path18978" /><path
       style="font-style:normal;font-variant:normal;font-weight:300;font-stretch:normal;font-size:341.33334351px;line-height:1.25;font-family:Roboto;-inkscape-font-specification:'Roboto Light';letter-spacing:0px;word-spacing:0px;display:inline;fill:#808080;fill-opacity:1;stroke:none"
       d="M 1684.8164,390.66602 V 633.33398 L 2075.4824,1024 h 263.334 l -633.334,-633.33398 z"
       id="path18976" /><path
       style="font-style:normal;font-variant:normal;font-weight:300;font-stretch:normal;font-size:341.33334351px;line-height:1.25;font-family:Roboto;-inkscape-font-specification:'Roboto Light';letter-spacing:0px;word-spacing:0px;display:inline;fill:#808080;fill-opacity:1;stroke:none"
       d="m 1133.6504,390.66602 62,242.66796 L 1586.3164,1024 h 467.668 l -633.334,-633.33398 h -21 l -21.9043,90.92773 -90.9277,-90.92773 h -18.5 l -25.4043,88.26367 -88.2637,-88.26367 z"
       id="path19059" /><path
       style="font-style:normal;font-variant:normal;font-weight:300;font-stretch:normal;font-size:341.33334351px;line-height:1.25;font-family:Roboto;-inkscape-font-specification:'Roboto Light';letter-spacing:0px;word-spacing:0px;display:inline;fill:#808080;fill-opacity:1;stroke:none"
       d="m 1456.4824,390.66602 v 167.16796 c 0.5556,24.66667 8.5007,44 23.834,58 L 1888.4824,1024 h 372.168 l -633.334,-633.33398 h -20.666 V 520.5 l -129.834,-129.83398 z"
       id="path18966" /><path
       style="font-style:normal;font-variant:normal;font-weight:300;font-stretch:normal;font-size:341.33334351px;line-height:1.25;font-family:Roboto;-inkscape-font-specification:'Roboto Light';letter-spacing:0px;word-spacing:0px;display:inline;fill:#808080;fill-opacity:1;stroke:none"
       d="M 2146.3164,390.66602 2054.4824,633.33398 2445.1484,1024 h 354.002 l -633.334,-633.33398 z"
       id="path18982" /><path
       style="display:inline;fill:#808080;stroke-width:0.78179646"
       d="M 637.15234,214.95703 487.75,364.35742 466.01562,386.0918 c 0.31273,0.31271 0.54872,0.54666 0.70508,0.85937 0.0782,0.23454 0.23432,0.54671 0.3125,0.78125 0.31272,0.54726 0.47071,1.17339 0.47071,1.79883 0.0782,0.54726 -0.0799,1.01725 -0.31446,1.48633 -0.23454,0.54725 -0.70285,1.40597 -1.09375,1.79687 l 150.8086,149.71485 -23.68946,23.6875 -12.74414,-12.74219 -13.44726,-13.44727 -78.80469,-78.80664 -11.17969,-11.17968 -7.5039,-7.50391 -35.41602,-35.17969 -3.08984,-0.98047 -4.33594,4.26367 v 0.46876 c 0,7.34888 0.38998,15.00865 -1.48633,22.20117 -0.85998,3.28355 -2.34444,6.25595 -4.14258,8.91406 -0.15636,0.15636 -0.23627,0.23426 -0.31445,0.39062 -1.87631,2.57993 -4.06471,4.84619 -6.48828,6.95704 -5.3944,4.53442 -11.25752,8.67896 -17.27734,12.50976 -0.15637,0.0782 -0.23427,0.1562 -0.39063,0.23438 -2.11085,1.40723 -4.3012,2.7354 -6.49023,4.06445 -8.91248,5.39439 -18.37192,10.08772 -28.37891,13.13672 -1.25087,0.31272 -2.42317,-0.001 -3.36133,-0.70508 l -6.01953,5.94141 c 1.25087,0.62543 2.03136,1.87776 1.875,3.51953 -10e-6,0.15636 -0.0762,0.23231 -0.0762,0.38867 0,0.0782 -0.0781,0.23628 -0.0781,0.31445 -1.32905,4.45624 -2.34505,8.98897 -3.2832,13.60156 -0.15636,0.70363 -0.23622,1.33154 -0.39258,2.03516 -0.85997,4.37806 -1.64209,8.83288 -2.3457,13.21094 0.23453,5.3944 0.39263,11.0234 0.31445,16.65234 v 0.39258 c -0.0782,7.66161 -0.78373,15.32114 -2.8164,22.51367 -2.26721,8.28704 -6.64376,15.63728 -10.55274,23.22071 -0.0782,0.15636 -0.15815,0.23426 -0.23633,0.39062 -1.25088,2.42357 -2.49924,4.92399 -3.59375,7.50391 -4.84714,11.33605 -7.42749,23.92328 -10.55468,35.88476 -0.23454,0.70362 -0.39046,1.48578 -0.625,2.26758 0,0.15636 -0.0801,0.23427 -0.0801,0.39063 -2.97082,11.10151 -6.09819,22.28173 -10.94532,32.75781 -1.40724,2.97082 -2.81531,5.86322 -4.3789,8.75586 -0.15636,0.23454 -0.23231,0.46858 -0.38867,0.70312 -0.62544,1.09451 -1.25152,2.26871 -1.87696,3.44141 -0.0782,0.15636 -0.15619,0.23426 -0.23437,0.39062 -3.51809,6.25438 -7.27098,12.43118 -10.78906,18.68555 -5.0035,8.8343 -8.99075,18.13635 -13.83789,27.04883 -0.0782,0.15636 -0.1562,0.23426 -0.23438,0.39062 -0.70362,1.32905 -1.48579,2.65728 -2.26758,3.98633 -5.0035,8.20887 -10.63256,16.0279 -16.57422,23.61133 -0.15635,0.15636 -0.23426,0.3124 -0.39062,0.46875 -0.7818,1.01634 -1.48578,1.95443 -2.26758,2.89258 -3.90898,4.92532 -7.97378,9.85009 -11.96094,14.77539 -0.0782,0.15637 -0.23432,0.23622 -0.3125,0.39258 -8.75612,10.71061 -17.35628,21.49761 -24.54883,33.30273 0,0.70362 -0.15602,1.33159 -0.46874,1.95703 -1.25087,2.42357 -2.65734,4.68971 -3.90821,7.11328 -0.0782,0.15636 0.62511,1.24989 0.46875,1.40625 L 429.86133,1024 H 1463.0215 L 661.85547,222.92969 c -0.93816,2.11087 -5.23681,1.40935 -7.34766,-0.23242 -1.71995,-1.32906 -3.12603,-3.05147 -4.45508,-4.84961 -0.62544,-0.31271 -1.25168,-0.62288 -1.64257,-0.85743 -2.89265,-1.40723 -6.09933,-1.48632 -9.30469,-1.48632 -0.7818,-0.0782 -1.40588,-0.23416 -1.95313,-0.54688 z m -206.12304,191.41992 0.11914,-0.11523 -0.23438,0.0781 z"
       id="XMLID_64_" /></g><g
     id="layer2"
     style="display:inline;fill:#000000;fill-opacity:0.49803922"><path
       id="XMLID_42_"
       d="m 295.17362,965.05417 c 1.0692,3.47527 0.5346,7.21786 -1.3367,10.29214 l -25.7972,41.83679 c -2.5396,4.1436 -7.2178,6.8169 -12.297,6.8169 H 14.345318 C 3.1176178,1024 -3.6991822,1012.2376 2.3157178,1003.4158 L 157.76692,774.44928 c 0.9356,-1.33663 1.4704,-2.80694 1.8713,-4.27723 l 71.2428,-304.21933 c 0.8021,-3.60893 3.2081,-6.6832 6.6833,-8.55449 l 96.5054,-52.93096 c 3.4753,-1.8713 5.8812,-4.94557 6.6832,-8.68816 l 12.9654,-56.53988 c 2.6733,-11.76242 19.5151,-14.30205 26.1981,-4.00991 l 4.6783,7.48519 c 2.0049,3.20793 2.5396,7.21785 1.2031,10.82678 l -87.9511,254.22895 c -0.6683,2.00497 -0.9355,4.1436 -0.5346,6.28223 l 21.9209,121.63426 c 0.401,2.40595 0.1334,4.94556 -0.9357,7.21785 l -52.2625,117.357 c -1.203,2.80696 -1.4704,5.88123 -0.5347,8.68817 z M 1009.7413,1024 H 843.46322 c -4.8117,0 -9.2228,-2.4059 -11.8959,-6.1485 L 719.69042,860.52891 c -0.6683,-1.0693 -1.3366,-2.13861 -1.7375,-3.3416 l -55.4707,-162.00078 c -1.0692,-3.20793 -3.6088,-6.01489 -6.8169,-7.61886 l -135.8026,-68.56965 c -3.7426,-1.87127 -6.4159,-5.34655 -7.2179,-9.22281 l -20.0495,-99.44603 c -0.2674,-1.60396 -0.9357,-3.20793 -2.005,-4.67824 l -46.1141,-67.76766 c -2.5396,-3.74259 -2.9405,-8.28717 -1.0693,-12.2971 l 28.0694,-60.01513 c 2.1387,-4.54457 6.817,-7.61886 12.1634,-7.88619 l 52.129,-3.07427 c 3.0742,-0.1337 5.8812,-1.20296 8.1536,-3.07427 l 38.3615,-29.80707 c 7.2178,-5.61388 18.1784,-3.20794 22.0546,4.67824 l 132.1937,268.93201 c 0.5346,1.20297 0.9357,2.40595 1.2029,3.60894 l 16.3072,108.13418 c 0.4009,2.53963 1.4701,4.8119 3.2079,6.6832 l 263.31808,288.17958 c 7.7525,8.5545 1.203,22.0546 -10.8269,22.0546 z M 363.20852,182.58501 c 0,-30.60907 19.3812,-56.94088 47.1834,-69.23798 -2.005,-3.3416 -3.2079,-6.95052 -3.2079,-10.82678 0,-14.836705 17.109,-26.866465 38.0942,-26.866465 0.5346,0 0.9356,0 1.4704,0 8.688,-14.43572 25.2624,-24.19318 44.2426,-24.19318 1.3367,0 2.6733,0 4.01,0.1337 1.7377,0.13369 3.4753,-0.66833 4.4109,-2.00497 14.0347,-21.38624 49.5894,-36.62394 91.159,-36.62394 15.3712,0 29.9406,2.13863 42.906,5.74756 3.0744,-5.07924 9.8911,-8.5545 17.7773,-8.5545 8.9556,0 16.5744,4.54458 18.8466,10.82678 10.9606,-12.69809 29.5398,-20.98524 50.6587,-20.98524 33.6834,0 60.9508,21.25257 60.9508,47.45072 0,3.20793 -0.401,6.2822 -1.203,9.35647 -0.5346,2.13864 0.6683,4.27725 2.9407,5.07924 21.5199,7.88618 36.0893,22.85655 36.0893,39.965535 0,19.51495 -18.8466,36.22296 -45.4458,42.77249 -2.1387,0.53466 -3.4753,2.40595 -3.4753,4.41092 0,0.1337 0,0.26731 0,0.40098 0,15.10404 -14.9704,27.5348 -34.218,28.87144 0.1333,0.66833 0.1333,1.33663 0.1333,2.13862 0,29.00509 -55.2031,52.3963 -123.2382,52.3963 -14.7029,0 -28.7377,-1.06932 -41.7031,-3.07427 0,0.26733 0,0.40099 0,0.66832 0,12.02975 -15.5051,21.78723 -34.4854,21.78723 -1.0692,0 -2.0049,0 -2.9405,-0.13369 1.3367,2.9406 2.005,6.01487 2.005,9.22281 0,18.71296 -23.6586,33.81699 -52.9311,33.81699 -3.2079,0 -6.2821,-0.1337 -9.3563,-0.53466 -2.4061,-0.26731 -4.6783,1.20299 -5.2131,3.47529 -2.5396,9.35647 -10.693,16.17333 -20.4504,16.17333 -11.7625,0 -21.119,-10.0248 -21.119,-22.32189 0,-5.74755 2.005,-10.96045 5.3466,-14.83671 1.203,-1.33663 1.6039,-3.20793 0.8019,-4.81191 -1.8713,-3.47526 -2.6733,-7.08419 -2.6733,-10.96044 v 0 c 0,-2.13862 -1.7376,-3.87626 -3.8763,-4.4109 -36.2228,-8.01985 -63.4903,-38.22792 -63.4903,-74.3172 z m 306.8925,726.06294 c 0.5348,1.60398 0.6683,3.20796 0.6683,4.94558 l -7.7525,97.97577 c -0.5346,6.9505 -6.6832,12.4307 -14.1683,12.4307 h -250.219 c -5.3466,0 -10.2921,-3.0743 -12.6982,-7.4852 l -41.3021,-76.72312 c -0.2673,-0.401 -0.401,-0.80199 -0.5347,-1.20298 l -38.8962,-94.23313 c -1.4702,-3.3416 -1.203,-7.21785 0.4011,-10.42581 l 64.5596,-126.31249 c 1.604,-3.07427 1.8712,-6.6832 0.6683,-9.89114 l -31.5447,-87.41626 c -1.0693,-3.07428 -0.9356,-6.54955 0.4011,-9.49015 l 52.6636,-112.14412 c 5.3464,-11.22778 22.8565,-10.29212 26.5991,1.47031 l 16.4407,51.05965 50.124,134.19868 c 1.3367,3.7426 4.5446,6.6832 8.5545,8.01985 l 106.9312,36.49027 c 4.1435,1.47032 7.3516,4.54458 8.6881,8.42084 z"
       style="fill:#000000;stroke-width:0.78179646;fill-opacity:0.49803922" /><g
       aria-label="WULKANOWY"
       style="font-style:normal;font-variant:normal;font-weight:300;font-stretch:normal;font-size:341.33334351px;line-height:1.25;font-family:Roboto;-inkscape-font-specification:'Roboto Light';letter-spacing:0px;word-spacing:0px;fill:#000000;fill-opacity:0.49803922;stroke:none"
       id="text4752" /></g></svg>